<?xml version="1.0" encoding="UTF-8" standalone="no"?>
<!-- Created with Inkscape (http://www.inkscape.org/) -->

<svg
   xmlns:dc="http://purl.org/dc/elements/1.1/"
   xmlns:cc="http://creativecommons.org/ns#"
   xmlns:rdf="http://www.w3.org/1999/02/22-rdf-syntax-ns#"
   xmlns:svg="http://www.w3.org/2000/svg"
   xmlns="http://www.w3.org/2000/svg"
   xmlns:sodipodi="http://sodipodi.sourceforge.net/DTD/sodipodi-0.dtd"
   xmlns:inkscape="http://www.inkscape.org/namespaces/inkscape"
   id="svg3336"
   version="1.1"
   inkscape:version="0.91 r13725"
   width="366"
   height="295"
   viewBox="0 0 366 295"
   sodipodi:docname="cont-area.svg">
  <metadata
     id="metadata3342">
    <rdf:RDF>
      <cc:Work
         rdf:about="">
        <dc:format>image/svg+xml</dc:format>
        <dc:type
           rdf:resource="http://purl.org/dc/dcmitype/StillImage" />
        <dc:title></dc:title>
      </cc:Work>
    </rdf:RDF>
  </metadata>
  <defs
     id="defs3340" />
  <sodipodi:namedview
     pagecolor="#ffffff"
     bordercolor="#666666"
     borderopacity="1"
     objecttolerance="10"
     gridtolerance="10"
     guidetolerance="10"
     inkscape:pageopacity="0"
     inkscape:pageshadow="2"
     inkscape:window-width="1920"
     inkscape:window-height="1018"
     id="namedview3338"
     showgrid="false"
     inkscape:zoom="0.5755932"
     inkscape:cx="316.23417"
     inkscape:cy="-150.00616"
     inkscape:window-x="-8"
     inkscape:window-y="-8"
     inkscape:window-maximized="1"
     inkscape:current-layer="svg3336" />
  <g
     id="g3364"
     transform="matrix(0.79968397,0,0,0.79968397,0.055923,0.225244)">
    <path
       style="fill:#dacaa8"
       d="M 23.818986,362.88111 C 21.808811,354.89799 13.85201,346.94119 5.8688812,344.93101 L 0,343.45321 0,184.375 0,25.296787 5.8688812,23.818986 C 13.85201,21.808811 21.808811,13.85201 23.818986,5.8688812 L 25.296787,0 228.75,0 l 203.45321,0 1.4778,5.8688812 c 2.01018,7.9831288 9.96698,15.9399298 17.9501,17.9501048 l 5.86889,1.477801 0,159.078213 0,159.07821 -5.86889,1.4778 c -7.98312,2.01018 -15.93992,9.96698 -17.9501,17.9501 l -1.4778,5.86889 -203.45321,0 -203.453213,0 -1.477801,-5.86889 z"
       id="path3374"
       inkscape:connector-curvature="0" />
    <path
       style="fill:#af8c40"
       d="M 24.554147,363.96363 C 23.036751,354.47435 14.275653,345.71325 4.7863764,344.19585 L 0,343.43047 0,184.375 0,25.31952 4.7863764,24.554147 C 14.275653,23.036751 23.036751,14.275653 24.554147,4.7863764 L 25.31952,0 228.75,0 l 203.43047,0 0.76538,4.7863764 c 1.5174,9.4892766 10.2785,18.2503746 19.76777,19.7677706 l 4.78638,0.765373 0,159.05548 0,159.05547 -4.78637,0.76538 c -9.48928,1.5174 -18.25038,10.2785 -19.76778,19.76777 l -0.76538,4.78638 -203.43047,0 -203.43048,0 -0.765373,-4.78637 z"
       id="path3372"
       inkscape:connector-curvature="0" />
    <path
       style="fill:#917334"
       d="m 27.5,363.0752 c 0,-3.11804 -4.492313,-10.94165 -8.323021,-14.495 C 15.128955,344.82528 8.5493118,341.25 5.6870749,341.25 3.9479316,341.25 3.75,325.22041 3.75,184.375 3.75,43.529592 3.9479316,27.5 5.6870749,27.5 8.5493118,27.5 15.128955,23.924725 19.176979,20.169798 23.007687,16.616451 27.5,8.792841 27.5,5.6747976 27.5,3.9497044 48.380374,3.75 228.75,3.75 409.11963,3.75 430,3.9497044 430,5.6747976 c 0,3.1180434 4.49231,10.9416534 8.32302,14.4950004 4.04803,3.754927 10.62767,7.330202 13.4899,7.330202 1.73914,0 1.93708,16.029592 1.93708,156.875 0,140.41494 -0.20196,156.875 -1.9248,156.875 -3.11804,0 -10.94165,4.49231 -14.495,8.32302 C 433.57528,353.62105 430,360.20069 430,363.06292 430,364.80434 409.67186,365 228.75,365 48.380374,365 27.5,364.8003 27.5,363.0752 Z"
       id="path3370"
       inkscape:connector-curvature="0" />
    <path
       style="fill:#614d23"
       d="M 27.5,362.11973 C 27.5,354.60635 14.029986,341.25 6.4526781,341.25 l -2.7026781,0 0,-156.875 0,-156.875 2.7026781,0 C 14.029986,27.5 27.5,14.143645 27.5,6.6302741 L 27.5,3.75 l 201.25,0 201.25,0 0,2.8802741 C 430,14.143645 443.47001,27.5 451.04732,27.5 l 2.70268,0 0,156.875 0,156.875 -2.88027,0 C 443.35635,341.25 430,354.72001 430,362.29732 l 0,2.70268 -201.25,0 -201.25,0 0,-2.88027 z"
       id="path3368"
       inkscape:connector-curvature="0" />
    <path
       style="fill:#000000"
       d="M 27.460311,359.85261 C 25.595898,352.9287 15.821299,343.1541 8.8973926,341.28969 L 3.75,339.90364 3.75,184.375 3.75,28.84636 8.8973926,27.460311 C 15.821299,25.595898 25.595898,15.821299 27.460311,8.8973926 L 28.84636,3.75 l 199.90364,0 199.90364,0 1.38605,5.1473926 c 1.86441,6.9239064 11.63901,16.6985044 18.56292,18.5629184 l 5.14739,1.386049 0,155.52864 0,155.52864 -5.14739,1.38605 c -6.92391,1.86441 -16.69851,11.63901 -18.56292,18.56292 L 428.65364,365 228.75,365 28.84636,365 27.460311,359.85261 Z"
       id="path3366"
       inkscape:connector-curvature="0" />
  </g>
</svg>
